<svg xmlns="http://www.w3.org/2000/svg" width="14.746" height="14.746" viewBox="0 0 14.746 14.746">
  <g id="Group_17" data-name="Group 17" transform="translate(-1634 -184)">
    <g id="Group_14" data-name="Group 14" transform="translate(1634 185.229)">
      <path id="Path_15" data-name="Path 15" d="M1645.674,213.517h-10.445a1.23,1.23,0,0,1-1.229-1.229v-11.06a1.23,1.23,0,0,1,1.229-1.229h7.066a.307.307,0,1,1,0,.614h-7.066a.615.615,0,0,0-.615.614v11.06a.615.615,0,0,0,.615.614h10.445a1.23,1.23,0,0,0,1.229-1.229v-6.451a.307.307,0,1,1,.614,0v6.451A1.845,1.845,0,0,1,1645.674,213.517Z" transform="translate(-1634 -200)" fill="#f14e3a"/>
    </g>
    <g id="Group_15" data-name="Group 15" transform="translate(1643.831 184)">
      <path id="Path_16" data-name="Path 16" d="M1766.608,188.915a.307.307,0,0,1-.307-.307v-3.994h-3.994a.307.307,0,1,1,0-.614h4.3a.307.307,0,0,1,.307.307v4.3A.307.307,0,0,1,1766.608,188.915Z" transform="translate(-1762 -184)" fill="#f14e3a"/>
    </g>
    <g id="Group_16" data-name="Group 16" transform="translate(1641.066 184)">
      <path id="Path_17" data-name="Path 17" d="M1726.307,191.68a.307.307,0,0,1-.217-.524l7.066-7.066a.307.307,0,1,1,.434.435l-7.066,7.066A.306.306,0,0,1,1726.307,191.68Z" transform="translate(-1726 -184)" fill="#f14e3a"/>
    </g>
  </g>
</svg>
