<svg xmlns="http://www.w3.org/2000/svg" width="97" height="97" viewBox="0 0 97 97">
  <g id="Group_220" data-name="Group 220" transform="translate(-1081 -2243)">
    <g id="Ellipse_1" data-name="Ellipse 1" transform="translate(1081 2243)" fill="#f14e3a" stroke="#f14e3a" stroke-width="1">
      <circle cx="48.5" cy="48.5" r="48.5" stroke="none"/>
      <circle cx="48.5" cy="48.5" r="48" fill="none"/>
    </g>
    <g id="Group_230" data-name="Group 230" transform="translate(931.582 2156)">
      <g id="Group_230-2" data-name="Group 230">
        <path id="Path_40" data-name="Path 40" d="M210.418,132v5a12,12,0,0,1-24,0v-5" fill="none" stroke="#fff" stroke-linecap="round" stroke-miterlimit="10" stroke-width="2"/>
        <path id="Path_41" data-name="Path 41" d="M198.418,145h0a8,8,0,0,1-8-8V123a8,8,0,0,1,8-8h0a8,8,0,0,1,8,8v14A8,8,0,0,1,198.418,145Z" fill="none" stroke="#fff" stroke-linecap="round" stroke-miterlimit="10" stroke-width="2"/>
        <line id="Line_17" data-name="Line 17" y2="8" transform="translate(198.418 149)" fill="none" stroke="#fff" stroke-linecap="round" stroke-miterlimit="10" stroke-width="2"/>
        <line id="Line_18" data-name="Line 18" x2="16" transform="translate(190.418 157)" fill="none" stroke="#fff" stroke-linecap="round" stroke-miterlimit="10" stroke-width="2"/>
      </g>
      <line id="Line_19" data-name="Line 19" x2="4" transform="translate(190.418 124)" fill="none" stroke="#fff" stroke-linecap="round" stroke-miterlimit="10" stroke-width="2"/>
      <line id="Line_20" data-name="Line 20" x2="4" transform="translate(190.418 128)" fill="none" stroke="#fff" stroke-linecap="round" stroke-miterlimit="10" stroke-width="2"/>
      <line id="Line_21" data-name="Line 21" x2="4" transform="translate(190.418 132)" fill="none" stroke="#fff" stroke-linecap="round" stroke-miterlimit="10" stroke-width="2"/>
      <line id="Line_22" data-name="Line 22" x2="4" transform="translate(190.418 136)" fill="none" stroke="#fff" stroke-linecap="round" stroke-miterlimit="10" stroke-width="2"/>
      <line id="Line_23" data-name="Line 23" x2="4" transform="translate(202.418 124)" fill="none" stroke="#fff" stroke-linecap="round" stroke-miterlimit="10" stroke-width="2"/>
      <line id="Line_24" data-name="Line 24" x2="4" transform="translate(202.418 128)" fill="none" stroke="#fff" stroke-linecap="round" stroke-miterlimit="10" stroke-width="2"/>
      <line id="Line_25" data-name="Line 25" x2="4" transform="translate(202.418 132)" fill="none" stroke="#fff" stroke-linecap="round" stroke-miterlimit="10" stroke-width="2"/>
      <line id="Line_26" data-name="Line 26" x2="4" transform="translate(202.418 136)" fill="none" stroke="#fff" stroke-linecap="round" stroke-miterlimit="10" stroke-width="2"/>
    </g>
  </g>
</svg>
